<svg xmlns="http://www.w3.org/2000/svg" enable-background="new 0 0 64 64" viewBox="0 0 64 64" id="speed-meter"><circle cx="32" cy="32" r="32" fill="#48495b"></circle><path fill="#fa5669" d="M7.58,18.79l8.03,4.94c-1.24,2.46-1.94,5.24-1.94,8.18h-9.4C4.27,27.16,5.47,22.7,7.58,18.79z"></path><path fill="#f2384e" d="M22.14,16.46c-2.34,1.5-4.32,3.52-5.78,5.89l-8-4.92c2.19-3.57,5.17-6.61,8.69-8.87L22.14,16.46z"></path><path fill="#ffc42e" d="M31.22,4.18v9.41c-2.78,0.11-5.39,0.85-7.72,2.08l-5.11-7.92C22.2,5.6,26.57,4.31,31.22,4.18z"></path><path fill="#f7b612" d="M45.62,7.75l-5.11,7.93H40.5c-2.32-1.23-4.94-1.97-7.72-2.09V4.18C37.44,4.31,41.81,5.6,45.62,7.75z"></path><path fill="#00dcab" d="M55.64,17.43l-8,4.92c-1.45-2.37-3.43-4.39-5.78-5.89l5.09-7.9C50.48,10.82,53.45,13.86,55.64,17.43z"></path><path fill="#02bf96" d="M59.73,31.91h-9.4c0-2.94-0.7-5.72-1.94-8.18l8.03-4.94C58.53,22.7,59.73,27.16,59.73,31.91z"></path><polygon fill="#ecf0f1" points="52.69 15.46 31.19 27.88 33.11 30.74"></polygon><circle cx="32.15" cy="29.31" r="3.86" fill="#53b4ed" transform="rotate(-87.553 32.152 29.308)"></circle><g><path fill="#fff" d="M29.48,48.48v8.14h-5.04c-0.32,0-0.57-0.26-0.57-0.57v-6.99c0-0.32,0.26-0.57,0.57-0.57H29.48z"></path><path fill="#fff" d="M35.9,47.36v11.78h-6.15l-2.79-2.79v-8.99c0-0.29,0.24-0.52,0.52-0.52h7.89
			C35.66,46.84,35.9,47.07,35.9,47.36z"></path><path fill="#fff" d="M38.69,49.93v8.37c0,0.24-0.11,0.47-0.27,0.62c-0.15,0.14-0.35,0.22-0.57,0.22h-2.56V49.09h2.56
			C38.31,49.09,38.69,49.47,38.69,49.93z"></path><rect width="2.89" height="2.89" x="37.58" y="52.55" fill="#fff"></rect><rect width="2.89" height="2.89" x="29.98" y="44.31" fill="#fff" transform="rotate(-90 31.427 45.761)"></rect><rect width="2.89" height="2.89" x="21.73" y="51.1" fill="#fff"></rect><path fill="#fff" d="M41.27 57.38L41.27 57.38c-.79 0-1.43-.64-1.43-1.43v-3.9c0-.79.64-1.43 1.43-1.43l0 0c.79 0 1.43.64 1.43 1.43v3.9C42.7 56.74 42.06 57.38 41.27 57.38zM35.34 44.74h-7.82c-.29 0-.53-.24-.53-.53l0 0c0-.29.24-.53.53-.53h7.82c.29 0 .53.24.53.53l0 0C35.87 44.51 35.63 44.74 35.34 44.74zM22.28 48.58v7.94c0 .27-.22.49-.49.49-.27 0-.49-.22-.49-.49v-7.94c0-.27.22-.49.49-.49.13 0 .26.05.34.14C22.22 48.32 22.28 48.44 22.28 48.58z"></path></g></svg>