<svg xmlns="http://www.w3.org/2000/svg" viewBox="0 0 64 64" id="business"><path fill="#457abe" d="M16.53 43.667a.502.502 0 0 1-.354-.146l-1.167-1.167a.5.5 0 0 1 .707-.707l.813.813.813-.813a.5.5 0 0 1 .707.707l-1.167 1.167a.494.494 0 0 1-.352.146zm-1.599 4.123a.5.5 0 0 1-.354-.853l2.862-2.862a.5.5 0 0 1 .707.707l-2.862 2.862a.498.498 0 0 1-.353.146zm-.402 3.896a.5.5 0 0 1-.354-.853l3.548-3.547a.5.5 0 0 1 .707.707l-3.548 3.547a.498.498 0 0 1-.353.146zm.526 2.899a.5.5 0 0 1-.354-.853l3.443-3.444a.5.5 0 0 1 .707.707l-3.443 3.444a.498.498 0 0 1-.353.146z"></path><path fill="#457abe" d="M16.53 56.552a.5.5 0 0 1-.4-.2l-2.333-3.111a.505.505 0 0 1-.097-.353l1.166-10.941a.515.515 0 0 1 .55-.444.5.5 0 0 1 .444.55l-1.146 10.746 1.815 2.42 1.815-2.42L17.2 42.053a.5.5 0 0 1 .444-.55.512.512 0 0 1 .55.444l1.166 10.941a.496.496 0 0 1-.097.353l-2.333 3.111a.498.498 0 0 1-.4.2zm.037-23.612c-1.013 0-1.955-.32-2.653-.901a.5.5 0 0 1 .641-.768c1.021.851 3.004.851 4.027 0a.5.5 0 0 1 .639.768c-.699.581-1.641.901-2.654.901z"></path><circle cx="14" cy="25.942" r=".5" fill="#457abe"></circle><path fill="#457abe" d="M22.701 22.879H10.257a1.279 1.279 0 0 1-1.277-1.278V18.49a2.836 2.836 0 0 1 2.833-2.833.5.5 0 0 1 .5.5c0 .582.474 1.056 1.056 1.056h8.556c1.134 0 2.056.922 2.056 2.056v2.333a1.282 1.282 0 0 1-1.28 1.277zm-11.314-6.172a1.836 1.836 0 0 0-1.407 1.784v3.111c0 .153.124.278.277.278h12.444a.279.279 0 0 0 .278-.278v-2.333c0-.582-.474-1.056-1.056-1.056h-8.556a2.061 2.061 0 0 1-1.98-1.506zM7.5 57.442a.5.5 0 0 1-.5-.5v-11a.5.5 0 0 1 1 0v11a.5.5 0 0 1-.5.5zm18 .058a.5.5 0 0 1-.5-.5V46a.5.5 0 0 1 1 0v11a.5.5 0 0 1-.5.5zM14.469 38.312h-.003a.5.5 0 0 1-.497-.502l.012-2.39c.001-.276.244-.483.503-.498a.5.5 0 0 1 .497.502l-.012 2.39a.5.5 0 0 1-.5.498zm4.031.146a.5.5 0 0 1-.5-.496l-.021-2.536a.5.5 0 0 1 .496-.504h.004a.5.5 0 0 1 .5.496L19 37.953a.5.5 0 0 1-.496.504l-.004.001z"></path><path fill="#457abe" d="M30.5 57.942h-28a.5.5 0 0 1-.5-.5V46.736c0-4.443 3.558-7.794 8.274-7.794H12a.5.5 0 0 1 0 1h-1.726C6.127 39.942 3 42.863 3 46.736v10.206h27V46.736c0-3.874-3.13-6.794-7.281-6.794H21a.5.5 0 0 1 0-1h1.719c4.721 0 8.281 3.351 8.281 7.794v10.706a.5.5 0 0 1-.5.5z"></path><path fill="#457abe" d="M14.693 42.478a.502.502 0 0 1-.354-.146l-2.703-2.703a.5.5 0 0 1 0-.707l1.844-1.844a.514.514 0 0 1 .707 0l2.703 2.703a.5.5 0 0 1 0 .707l-1.844 1.844a.498.498 0 0 1-.353.146zm-1.996-3.203 1.996 1.996 1.137-1.137-1.996-1.996-1.137 1.137z"></path><path fill="#457abe" d="M18.205 42.509a.504.504 0 0 1-.354-.146l-1.844-1.844a.5.5 0 0 1 0-.707l2.765-2.765a.5.5 0 0 1 .707 0l1.845 1.844a.5.5 0 0 1 0 .708l-2.766 2.765a.499.499 0 0 1-.353.145zm-1.137-2.344 1.137 1.137 2.059-2.058-1.138-1.137-2.058 2.058zM13 24.942h-3a.5.5 0 0 1 0-1h3a.5.5 0 0 1 0 1zm28.479-16h-5a.5.5 0 0 1 0-1h5a.5.5 0 0 1 0 1zm-2 2h-3a.5.5 0 0 1 0-1h3a.5.5 0 0 1 0 1zM17 25.942h-1a.5.5 0 0 1 0-1h1a.5.5 0 0 1 0 1zm6-1h-3a.5.5 0 0 1 0-1h3a.5.5 0 0 1 0 1zm30.479.079a.5.5 0 0 1-.487-.614l1.011-4.322c.083-.413.126-1.046-.161-1.632a2.616 2.616 0 0 0-2.363-1.474h-6.26a.5.5 0 0 1 0-1h6.26a3.61 3.61 0 0 1 3.262 2.034c.324.664.407 1.453.24 2.285l-1.014 4.337a.502.502 0 0 1-.488.386z"></path><path fill="#457abe" d="M41.479 25.021a.5.5 0 0 1-.49-.405l-.835-4.322c-.165-.83-.082-1.62.242-2.281a3.608 3.608 0 0 1 3.261-2.034h6.261a.5.5 0 0 1 0 1h-6.261a2.613 2.613 0 0 0-2.362 1.474c-.287.584-.245 1.219-.159 1.648l.836 4.325a.5.5 0 0 1-.493.595z"></path><path fill="#457abe" d="M53.479 29.668a.5.5 0 0 1-.5-.5v-4.57l-.876-.829a2.015 2.015 0 0 1-.624-1.453c0-.228-.112-.34-.25-.34h-7.5a.25.25 0 0 0-.25.25v.114c0 .535-.209 1.038-.588 1.415l-.912.912v4.5a.5.5 0 0 1-1 0V24.46c0-.133.053-.26.146-.354l1.06-1.059a.995.995 0 0 0 .294-.708v-.114c0-.689.561-1.25 1.25-1.25h7.5c.689 0 1.25.561 1.25 1.25 0 .364.113.629.313.817l1.031.976a.5.5 0 0 1 .156.363v4.785a.5.5 0 0 1-.5.502zM10.5 28.942h-1c-.827 0-1.5-.673-1.5-1.5v-2c0-.827.673-1.5 1.5-1.5h1a.5.5 0 0 1 .5.5v4a.5.5 0 0 1-.5.5zm-1-4a.5.5 0 0 0-.5.5v2a.5.5 0 0 0 .5.5h.5v-3h-.5zm14 4h-1a.5.5 0 0 1-.5-.5v-4a.5.5 0 0 1 .5-.5h1c.827 0 1.5.673 1.5 1.5v2c0 .827-.673 1.5-1.5 1.5zm-.5-1h.5a.5.5 0 0 0 .5-.5v-2a.5.5 0 0 0-.5-.5H23v3z"></path><path fill="#457abe" d="M16.5 35.942a6.508 6.508 0 0 1-6.5-6.5v-7a.5.5 0 0 1 .5-.5h12a.5.5 0 0 1 .5.5v7c0 3.584-2.916 6.5-6.5 6.5zm-5.5-13v6.5c0 3.033 2.468 5.5 5.5 5.5s5.5-2.467 5.5-5.5v-6.5H11zm36.479 13a6.508 6.508 0 0 1-6.5-6.5v-3a.5.5 0 0 1 1 0v3c0 3.033 2.468 5.5 5.5 5.5s5.5-2.467 5.5-5.5v-3a.5.5 0 0 1 1 0v3c0 3.584-2.916 6.5-6.5 6.5z"></path><path fill="#457abe" d="M15.5 27.942h-3a.5.5 0 0 1-.5-.5v-3a.5.5 0 0 1 .5-.5h3a.5.5 0 0 1 .5.5v3a.5.5 0 0 1-.5.5zm-2.5-1h2v-2h-2v2z"></path><circle cx="19" cy="25.942" r=".5" fill="#457abe"></circle><path fill="#457abe" d="M20.5 27.942h-3a.5.5 0 0 1-.5-.5v-3a.5.5 0 0 1 .5-.5h3a.5.5 0 0 1 .5.5v3a.5.5 0 0 1-.5.5zm-2.5-1h2v-2h-2v2zm-1 2.994h-1a.5.5 0 0 1 0-1h1a.5.5 0 0 1 0 1zm30.53 13.731a.502.502 0 0 1-.354-.146l-1.167-1.167a.5.5 0 0 1 .707-.707l.813.813.813-.813a.5.5 0 0 1 .707.707l-1.167 1.167a.494.494 0 0 1-.352.146zm-1.599 4.123a.5.5 0 0 1-.354-.853l2.862-2.862a.5.5 0 0 1 .707.707l-2.862 2.862a.498.498 0 0 1-.353.146zm-.402 3.896a.5.5 0 0 1-.354-.853l3.548-3.547a.5.5 0 0 1 .707.707l-3.548 3.547a.498.498 0 0 1-.353.146zm.526 2.899a.5.5 0 0 1-.354-.853l3.443-3.444a.5.5 0 0 1 .707.707l-3.443 3.444a.498.498 0 0 1-.353.146z"></path><path fill="#457abe" d="M47.53 56.552a.5.5 0 0 1-.4-.2l-2.333-3.111a.505.505 0 0 1-.097-.353l1.166-10.941a.515.515 0 0 1 .55-.444.5.5 0 0 1 .444.55l-1.146 10.746 1.815 2.42 1.815-2.42L48.2 42.053a.5.5 0 0 1 .444-.55.51.51 0 0 1 .55.444l1.166 10.941a.496.496 0 0 1-.097.353l-2.333 3.111a.498.498 0 0 1-.4.2zm.037-23.612c-1.013 0-1.955-.32-2.653-.901a.5.5 0 0 1 .641-.768c1.021.851 3.004.851 4.027 0a.5.5 0 0 1 .639.768c-.699.581-1.641.901-2.654.901z"></path><circle cx="45" cy="25.942" r=".5" fill="#457abe"></circle><path fill="#457abe" d="M38.5 57.442a.5.5 0 0 1-.5-.5v-11a.5.5 0 0 1 1 0v11a.5.5 0 0 1-.5.5zm18 .058a.5.5 0 0 1-.5-.5V46a.5.5 0 0 1 1 0v11a.5.5 0 0 1-.5.5zM45.469 38.312h-.003a.5.5 0 0 1-.497-.502l.012-2.39c.001-.276.197-.483.503-.498a.5.5 0 0 1 .497.502l-.012 2.39a.5.5 0 0 1-.5.498zm4.031.146a.5.5 0 0 1-.5-.496l-.021-2.536a.5.5 0 0 1 .496-.504c.277.006.502.22.504.496L50 37.953a.5.5 0 0 1-.5.505z"></path><path fill="#457abe" d="M61.5 57.942h-28a.5.5 0 0 1-.5-.5V46.736c0-4.443 3.558-7.794 8.274-7.794H43a.5.5 0 0 1 0 1h-1.726c-4.147 0-7.274 2.921-7.274 6.794v10.206h27V46.736c0-3.874-3.13-6.794-7.281-6.794H52a.5.5 0 0 1 0-1h1.719c4.721 0 8.281 3.351 8.281 7.794v10.706a.5.5 0 0 1-.5.5z"></path><path fill="#457abe" d="M45.693 42.478a.502.502 0 0 1-.354-.146l-2.703-2.703a.5.5 0 0 1 0-.707l1.844-1.844a.514.514 0 0 1 .707 0l2.703 2.703a.5.5 0 0 1 0 .707l-1.844 1.844a.498.498 0 0 1-.353.146zm-1.996-3.203 1.996 1.996 1.137-1.137-1.996-1.996-1.137 1.137z"></path><path fill="#457abe" d="M49.205 42.509a.504.504 0 0 1-.354-.146l-1.844-1.844a.5.5 0 0 1 0-.707l2.765-2.765a.5.5 0 0 1 .707 0l1.845 1.844a.5.5 0 0 1 0 .708l-2.766 2.765a.499.499 0 0 1-.353.145zm-1.137-2.344 1.137 1.137 2.059-2.058-1.138-1.137-2.058 2.058zM41.5 28.942h-1c-.827 0-1.5-.673-1.5-1.5v-2c0-.827.673-1.5 1.5-1.5h1a.5.5 0 0 1 .5.5v4a.5.5 0 0 1-.5.5zm-1-4a.5.5 0 0 0-.5.5v2a.5.5 0 0 0 .5.5h.5v-3h-.5zm14 4h-1a.5.5 0 0 1-.5-.5v-4a.5.5 0 0 1 .5-.5h1c.827 0 1.5.673 1.5 1.5v2c0 .827-.673 1.5-1.5 1.5zm-.5-1h.5a.5.5 0 0 0 .5-.5v-2a.5.5 0 0 0-.5-.5H54v3z"></path><circle cx="50" cy="25.942" r=".5" fill="#457abe"></circle><path fill="#457abe" d="M48 29.936h-1a.5.5 0 0 1 0-1h1a.5.5 0 0 1 0 1zm-1.96-4.555a.502.502 0 0 1-.354-.146 1.025 1.025 0 0 0-1.414 0 .5.5 0 0 1-.707-.707c.754-.754 2.072-.755 2.828 0a.5.5 0 0 1-.353.853zm5 0a.502.502 0 0 1-.354-.146 1.025 1.025 0 0 0-1.414 0 .5.5 0 0 1-.707-.707c.753-.754 2.071-.755 2.828 0a.5.5 0 0 1-.353.853zM43.5 14.942a.504.504 0 0 1-.354-.146l-1.854-1.854H35.5c-.827 0-1.5-.673-1.5-1.5v-4c0-.827.673-1.5 1.5-1.5h7c.827 0 1.5.673 1.5 1.5v7a.5.5 0 0 1-.5.5zm-8-8a.5.5 0 0 0-.5.5v4a.5.5 0 0 0 .5.5h6c.133 0 .26.053.354.146L43 13.235V7.442a.5.5 0 0 0-.5-.5h-7zm-7.979 3h-5a.5.5 0 0 1 0-1h5a.5.5 0 0 1 0 1zm0 2h-3a.5.5 0 0 1 0-1h3a.5.5 0 0 1 0 1z"></path><path fill="#457abe" d="M20.5 15.942a.5.5 0 0 1-.5-.5v-7c0-.827.673-1.5 1.5-1.5h7c.827 0 1.5.673 1.5 1.5v4c0 .827-.673 1.5-1.5 1.5h-5.793l-1.854 1.854a.5.5 0 0 1-.353.146zm1-8a.5.5 0 0 0-.5.5v5.793l1.146-1.146a.5.5 0 0 1 .354-.146h6a.5.5 0 0 0 .5-.5v-4a.5.5 0 0 0-.5-.5h-7z"></path></svg>