<svg xmlns="http://www.w3.org/2000/svg" width="512" height="512" enable-background="new 0 0 512 512" viewBox="0 0 512 512" id="valet-parking"><path fill="#333" d="M499.068 221h-33.579c0 0-21.431-35.116-36.664-46.547-15.238-11.431-111.34-15.729-111.34-15.729s-95.868 5.037-111.106 16.469C191.14 186.623 169.945 221 169.945 221h-30.071c0 0-11.875-.221-11.875 6.632 0 6.861 0 9.123 0 12.001s2.38 5.34 11.523 6.868c9.145 1.522 11.902 3.805 11.902 3.805s-14.936 30.862-17.219 63.625c-2.288 32.762-5.102 57.908 4.043 64.763l1.75 4.196v37.269c0 0 2.515 12.842 9.748 12.842 7.24 0 43.502 0 43.502 0s4.75-6.899 4.75-12.508c0-5.603 0-28.623 0-28.623s23.222 7.021 117.5 7.021c94.28 0 117.5-7.021 117.5-7.021s0 23.021 0 28.623c0 5.608 9.18 12.508 9.18 12.508s30.026 0 37.263 0c7.241 0 11.558-12.842 11.558-12.842V382.89l3.822-4.196c9.146-6.854 8.008-32.001 5.723-64.763-2.29-32.763-17.296-63.625-17.296-63.625s6.818-2.282 15.962-3.805c9.146-1.528 8.789-5.479 8.789-5.479s0-5.283 0-12.146C508 222.021 499.068 221 499.068 221zM198.342 342.645c-14.515 0-26.285-11.77-26.285-26.284 0-14.521 11.77-26.288 26.285-26.288 14.519 0 26.288 11.767 26.288 26.288C224.63 330.875 212.861 342.645 198.342 342.645zM177.098 259.44c0 0 26.624-62.141 41.864-68.617 15.239-6.479 49.025-12.763 98.523-13.14 49.501.377 83.339 6.661 98.584 13.14 15.234 6.477 42.089 68.617 42.089 68.617C405.501 254.855 229.763 254.855 177.098 259.44zM437.086 342.645c-14.52 0-26.289-11.77-26.289-26.284 0-14.521 11.77-26.288 26.289-26.288 14.516 0 26.285 11.767 26.285 26.288C463.371 330.875 451.602 342.645 437.086 342.645zM78.689 105l1.684-19.587c0 0-13.383-5.847-24.546-5.847-11.162 0-25.313 5.838-25.313 5.838L32.194 105H78.689zM80.655 116.219c0-2.223-.262-4.219-.743-5.219H31.539c-.479 1-.741 2.968-.741 5.191 0 15.93 11.165 27.757 24.925 27.757C69.49 143.948 80.655 132.146 80.655 116.219z"></path><polygon fill="#333" points="55.828 148.988 48.168 154.542 55.46 162.388 48.168 170.235 55.828 208.503 63.487 170.235 56.196 162.388 63.487 154.542"></polygon><path fill="#333" d="M70.547,149.056L56.836,225h-2.414l-15.69-75.903C18.971,150.292,3,163.725,3,179.421v88.307
		L34.923,433h38.56L106,267.728v-88.307C106,163.543,90.648,149.99,70.547,149.056z M92,194H74v-4h18V194z"></path></svg>