<svg xmlns="http://www.w3.org/2000/svg" viewBox="0 0 64 64" id="business"><path fill="#457abe" d="M30.939 54.384a2.001 2.001 0 0 1-1.414-3.414l.354-.354a.5.5 0 0 1 .707.707l-.354.354a1 1 0 0 0 0 1.414 1.025 1.025 0 0 0 1.414 0l.354-.354a.5.5 0 0 1 .707.707l-.354.354a1.983 1.983 0 0 1-1.414.586z"></path><path fill="#457abe" d="M28.818 52.262a1.993 1.993 0 0 1-1.414-.585 1.986 1.986 0 0 1-.586-1.414c0-.535.208-1.037.586-1.414l.353-.354a.5.5 0 0 1 .707.707l-.354.354a.99.99 0 0 0-.293.707c0 .267.104.518.293.707a1.027 1.027 0 0 0 1.415 0l.354-.354a.5.5 0 0 1 .707.707l-.354.354c-.39.389-.902.585-1.414.585z"></path><path fill="#457abe" d="M26.696 50.14a1.992 1.992 0 0 1-1.414-.584 2.003 2.003 0 0 1 0-2.829l.354-.354a.5.5 0 0 1 .707.707l-.354.354a1.002 1.002 0 0 0 0 1.415 1.005 1.005 0 0 0 1.415 0l.353-.354a.5.5 0 0 1 .707.707l-.354.354a1.995 1.995 0 0 1-1.414.584z"></path><path fill="#457abe" d="M24.575 48.019a2.001 2.001 0 0 1-1.414-3.413l.354-.354a.5.5 0 0 1 .707.707l-.354.354a1 1 0 0 0 1.415 1.414l.354-.354a.5.5 0 0 1 .707.707l-.354.354a2 2 0 0 1-1.415.585zm-7.778-9.985a.502.502 0 0 1-.354-.146l-9.546-9.546a.5.5 0 0 1 .707-.707l9.192 9.192 8.485-8.485-9.192-9.193a.5.5 0 0 1 .707-.707l9.546 9.546a.5.5 0 0 1 0 .708l-9.192 9.192a.498.498 0 0 1-.353.146z"></path><path fill="#457abe" d="M12.555 33.792a.502.502 0 0 1-.354-.146l-9.192-9.192a.5.5 0 0 1 0-.707l9.192-9.192a.5.5 0 0 1 .707 0l9.192 9.192a.5.5 0 0 1 0 .707l-9.192 9.192a.498.498 0 0 1-.353.146zM4.069 24.1l8.485 8.485L21.04 24.1l-8.485-8.485L4.069 24.1zm15.542 15.334a.502.502 0 0 1-.354-.146l-2.121-2.121a.5.5 0 0 1 0-.707l7.778-7.778a.5.5 0 0 1 .707 0l2.122 2.121a.5.5 0 0 1 0 .708l-7.778 7.778a.505.505 0 0 1-.354.145zm-1.414-2.621 1.414 1.414 7.071-7.071-1.415-1.414-7.07 7.071z"></path><path fill="#457abe" d="M30.939 52.177a.502.502 0 0 1-.354-.146L19.272 40.717a1.502 1.502 0 0 1 0-2.122l7.778-7.778a.5.5 0 0 1 .707 0l1.268 1.268h2.622c.133 0 .26.053.354.146l.707.708a.5.5 0 0 1-.707.707l-.561-.562h-2.622a.5.5 0 0 1-.354-.146l-1.061-1.061-7.425 7.424a.502.502 0 0 0 0 .708l11.314 11.313a.5.5 0 0 1-.353.855z"></path><path fill="#457abe" d="M33.768 54.383a1.993 1.993 0 0 1-1.414-.585l-2.49-2.489a.5.5 0 0 1 .707-.707l2.49 2.489a1 1 0 0 0 1.415-1.414l-2.49-2.49a.5.5 0 0 1 .707-.707l2.49 2.49a1.997 1.997 0 0 1-1.415 3.413z"></path><path fill="#457abe" d="M35.889 52.263a1.983 1.983 0 0 1-1.414-.586l-3.197-3.197a.5.5 0 0 1 .707-.707l3.197 3.197a1.025 1.025 0 0 0 1.414 0 .993.993 0 0 0 .293-.707.993.993 0 0 0-.292-.707l-2.49-2.49a.5.5 0 0 1 .707-.707l2.49 2.49c.378.377.586.879.586 1.414 0 .534-.208 1.036-.586 1.414s-.881.586-1.415.586z"></path><path fill="#457abe" d="M38.01 50.14a1.992 1.992 0 0 1-1.414-.584l-3.197-3.197a.5.5 0 0 1 .707-.707l3.197 3.197c.39.39 1.024.388 1.415 0a1.004 1.004 0 0 0 0-1.415l-2.49-2.489a.5.5 0 0 1 .707-.707l2.49 2.489c.779.78.779 2.049 0 2.829-.39.389-.903.584-1.415.584z"></path><path fill="#457abe" d="M40.132 48.02a1.983 1.983 0 0 1-1.414-.586l-3.197-3.196a.5.5 0 0 1 .707-.707l3.197 3.196a1.023 1.023 0 0 0 1.414 0c.189-.189.293-.44.293-.707s-.104-.518-.293-.707l-8.146-8.146a.5.5 0 0 1 .707-.707l8.146 8.146c.378.378.586.88.586 1.414s-.208 1.036-.586 1.414-.88.586-1.414.586zM16.775 34.769c-.384 0-.769-.146-1.061-.438a1.501 1.501 0 0 1 2.122-2.121 1.498 1.498 0 0 1-1.061 2.559zm.707-.792h.01-.01zm-.707-1.207a.5.5 0 1 0 0 .999.5.5 0 0 0 0-.999zm30.428 5.971a.502.502 0 0 1-.354-.146l-9.192-9.192a.5.5 0 0 1 0-.708l9.546-9.546a.5.5 0 0 1 .707.707l-9.192 9.192 8.485 8.485 9.192-9.192a.5.5 0 0 1 .707.707l-9.546 9.545a.494.494 0 0 1-.353.148z"></path><path fill="#457abe" d="M51.445 34.499a.502.502 0 0 1-.354-.146l-9.192-9.192a.5.5 0 0 1 0-.707l9.192-9.192a.5.5 0 0 1 .707 0l9.192 9.192a.5.5 0 0 1 0 .707l-9.192 9.192a.498.498 0 0 1-.353.146zm-8.485-9.692 8.485 8.485 8.485-8.485-8.485-8.485-8.485 8.485zm1.429 15.334a.502.502 0 0 1-.354-.146l-7.778-7.778a.5.5 0 0 1 0-.708l2.122-2.121a.5.5 0 0 1 .707 0l7.778 7.778a.5.5 0 0 1 0 .707l-2.121 2.121a.5.5 0 0 1-.354.147zm-7.071-8.278 7.071 7.071 1.414-1.414-7.071-7.071-1.414 1.414z"></path><path fill="#457abe" d="M40.839 45.105a.5.5 0 0 1-.354-.853l3.536-3.535a.497.497 0 0 0 0-.707l-7.425-7.425-1.061 1.061a.5.5 0 0 1-.354.146h-2.622l-4.803 4.803a.5.5 0 0 1-.707-.707L32 32.938a.5.5 0 0 1 .354-.146h2.622l1.268-1.268a.514.514 0 0 1 .707 0l7.778 7.779c.283.282.439.658.439 1.06 0 .4-.156.778-.439 1.062l-3.536 3.535a.501.501 0 0 1-.354.145zm6.386-9.629c-.384 0-.768-.146-1.061-.438a1.505 1.505 0 0 1 0-2.121 1.505 1.505 0 0 1 2.122 0 1.502 1.502 0 0 1 0 2.122 1.502 1.502 0 0 1-1.061.437zm-.354-1.146a.5.5 0 1 0 .708-.707.5.5 0 0 0-.708.707z"></path><path fill="#457abe" d="M29.51 39.605a3.477 3.477 0 0 1-2.475-1.025.5.5 0 0 1 .707-.707c.945.945 2.592.945 3.536 0l2.121-2.121a.5.5 0 0 1 .707.707l-2.121 2.121a3.477 3.477 0 0 1-2.475 1.025zM43.5 23.672a.5.5 0 0 1-.5-.5v-6.127l-11-6.351-11 6.351v5.808a.5.5 0 0 1-1 0v-6.097c0-.179.095-.344.25-.433l11.5-6.64a.502.502 0 0 1 .5 0l11.5 6.64c.155.089.25.254.25.433v6.416a.5.5 0 0 1-.5.5z"></path><path fill="#457abe" d="M26.525 20.796a.494.494 0 0 1-.25-.067l-5.994-3.46a.5.5 0 0 1 .5-.866l5.994 3.46a.5.5 0 0 1-.25.933zM37.473 20.674a.5.5 0 0 1-.251-.933l5.921-3.418a.499.499 0 1 1 .5.866l-5.921 3.418a.488.488 0 0 1-.249.067zM32 30.204a.5.5 0 0 1-.5-.5V17.11a.5.5 0 0 1 1 0v12.594a.5.5 0 0 1-.5.5z"></path><path fill="#457abe" d="M32.86 23.633H31.2c-1.343 0-2.437-1.085-2.437-2.418s1.093-2.418 2.437-2.418h3.523a.5.5 0 0 1 0 1H31.2a1.43 1.43 0 0 0-1.437 1.418 1.43 1.43 0 0 0 1.437 1.418h1.66a.5.5 0 0 1 0 1z"></path><path fill="#457abe" d="M32.812 27.458h-3.548a.5.5 0 0 1 0-1h3.548a1.413 1.413 0 0 0 0-2.825h-1.093a.5.5 0 0 1 0-1h1.093c1.33 0 2.412 1.082 2.412 2.412s-1.082 2.413-2.412 2.413zM32 15.672c-.827 0-1.5-.673-1.5-1.5s.673-1.5 1.5-1.5 1.5.673 1.5 1.5-.673 1.5-1.5 1.5zm0-2a.5.5 0 1 0 0 1 .5.5 0 0 0 0-1z"></path><circle cx="23.521" cy="25.172" r=".5" fill="#457abe"></circle><circle cx="40.521" cy="25.172" r=".5" fill="#457abe"></circle><circle cx="23.521" cy="23.172" r=".5" fill="#457abe"></circle><circle cx="23.521" cy="21.172" r=".5" fill="#457abe"></circle><circle cx="40.521" cy="23.172" r=".5" fill="#457abe"></circle><circle cx="40.521" cy="21.172" r=".5" fill="#457abe"></circle><circle cx="25.785" cy="17.305" r=".5" fill="#457abe" transform="rotate(-29.939 25.785 17.304)"></circle><circle cx="27.518" cy="16.306" r=".5" fill="#457abe" transform="rotate(-29.939 27.518 16.306)"></circle><circle cx="29.251" cy="15.308" r=".5" fill="#457abe" transform="rotate(-29.939 29.25 15.308)"></circle><circle cx="38.225" cy="17.305" r=".5" fill="#457abe" transform="rotate(-60.061 38.223 17.304)"></circle><circle cx="36.492" cy="16.306" r=".5" fill="#457abe" transform="rotate(-60.061 36.49 16.306)"></circle><circle cx="34.759" cy="15.308" r=".5" fill="#457abe" transform="rotate(-60.061 34.757 15.308)"></circle><defs><path id="a" d="M-1047.486 7.422h675.5V140.11h-675.5z"></path></defs></svg>