<svg xmlns="http://www.w3.org/2000/svg" data-name="Layer 1" viewBox="0 0 32 32" id="ownership"><path d="M4.485,8h10a.5.5,0,0,0,0-1h-10a.5.5,0,1,0,0,1Zm22,16a1.5,1.5,0,0,0-1.408,1H21a.5.5,0,0,0-.5.5V27a.5.5,0,0,0,1,0V26h1v1a.5.5,0,0,0,1,0V26h1.577a1.5,1.5,0,1,0,1.408-2Zm0,2a.5.5,0,1,1,.5-.5A.5.5,0,0,1,26.485,26Zm-22-21h10a.5.5,0,0,0,0-1h-10a.5.5,0,1,0,0,1Zm11,20h-8a.5.5,0,0,0,0,1h8a.5.5,0,0,0,0-1Zm-10-5h13a1.5,1.5,0,0,0,1.5-1.5v-7a1.5,1.5,0,0,0-1.5-1.5h-13a1.5,1.5,0,0,0-1.5,1.5v7A1.5,1.5,0,0,0,5.485,20Zm-.5-8.5a.5.5,0,0,1,.5-.5h13a.5.5,0,0,1,.5.5v7a.5.5,0,0,1-.5.5h-13a.5.5,0,0,1-.5-.5Zm20,7.525V7.5a.484.484,0,0,0-.013-.064.456.456,0,0,0-.012-.063.492.492,0,0,0-.121-.227l-7-7a.492.492,0,0,0-.229-.122.459.459,0,0,0-.057-.011A.485.485,0,0,0,17.485,0h-14a2.5,2.5,0,0,0-2.5,2.5v27a2.5,2.5,0,0,0,2.5,2.5h21a6.5,6.5,0,0,0,.5-12.975Zm-7-17.318L23.278,7H19.485a1.5,1.5,0,0,1-1.5-1.5ZM3.485,31a1.5,1.5,0,0,1-1.5-1.5V2.5A1.5,1.5,0,0,1,3.485,1h13.5V5.5a2.5,2.5,0,0,0,2.5,2.5h4.5V19.025A6.5,6.5,0,0,0,19.016,22H5.485a1.5,1.5,0,0,0-1.5,1.5v4a1.5,1.5,0,0,0,1.5,1.5H19.016a6.541,6.541,0,0,0,2.02,2Zm15-3h-13a.5.5,0,0,1-.5-.5v-4a.5.5,0,0,1,.5-.5h13a6.482,6.482,0,0,0,0,5Zm6,3a5.5,5.5,0,1,1,5.5-5.5A5.507,5.507,0,0,1,24.485,31Z"></path></svg>